<svg xmlns:svg="http://www.w3.org/2000/svg" xmlns="http://www.w3.org/2000/svg" width="64" height="64" viewBox="0 0 64 64" version="1.1">
    <g transform="matrix(0.25914597,-0.96714586,0.96714595,0.25914595,176.58361,5.9126568)"><path d="m-49.09-155.99 2.55-4.41c0 0-2.54-1.38-4-1.99-1.45-0.61-3.72-1.19-3.72-1.19l-1.31 4.87" fill="#ce5c00"/><path d="m-49.09-155.99 2.55-4.41c0 0-2.54-1.38-4-1.99-1.45-0.61-3.72-1.19-3.72-1.19l-1.31 4.87" fill="#fce94f"/><path d="m-49.09-155.99 2.55-4.41c0 0-2.54-1.38-4-1.99-1.45-0.61-3.72-1.19-3.72-1.19l-1.31 4.87" fill="#edd400"/><path d="m-43.53-151.71 3.6-3.6c0 0-2.1-1.99-3.34-2.96-1.25-0.96-3.28-2.11-3.28-2.11l-2.53 4.37" fill="#c4a000"/><path d="m-39.26-146.15 4.41-2.55c0 0-1.51-2.47-2.47-3.72-0.95-1.25-2.63-2.89-2.63-2.89l-3.57 3.57" fill="#8ae234"/><path d="m-36.59-139.67 4.92-1.32c0 0-0.82-2.77-1.42-4.23-0.6-1.46-1.79-3.47-1.79-3.47l-4.37 2.52" fill="#73d216"/><path d="m-35.68-132.71 5.1 0c0 0-0.08-2.89-0.27-4.46-0.2-1.56-0.83-3.81-0.83-3.81l-4.88 1.3" fill="#4e9a06"/><path d="m-36.6-125.67 4.92 1.32c0 0 0.67-2.81 0.89-4.37 0.21-1.56 0.18-3.9 0.18-3.9l-5.05 0" fill="#fcaf3e"/><path d="m-39.29-119.28 4.41 2.55c0 0 1.38-2.54 1.99-4 0.61-1.45 1.19-3.72 1.19-3.72l-4.87-1.31" fill="#f57900"/><path d="m-43.56-113.72 3.6 3.6c0 0 1.99-2.1 2.96-3.34 0.96-1.25 2.11-3.28 2.11-3.28l-4.37-2.53" fill="#ce5c00"/><path d="m-49.13-109.46 2.55 4.41c0 0 2.47-1.51 3.72-2.47 1.25-0.95 2.89-2.63 2.89-2.63l-3.57-3.57" fill="#729fcf"/><path d="m-55.61-106.78 1.32 4.92c0 0 2.77-0.82 4.23-1.42 1.46-0.6 3.47-1.79 3.47-1.79l-2.52-4.37" fill="#3465a4"/><path d="m-62.57-105.87 0 5.1c0 0 2.89-0.08 4.46-0.27 1.56-0.2 3.81-0.83 3.81-0.83l-1.3-4.88" fill="#204a87"/><path d="m-69.52-106.8-1.32 4.92c0 0 2.81 0.67 4.37 0.89 1.56 0.21 3.9 0.18 3.9 0.18l0-5.05" fill="#ad7fa8"/><path d="m-75.99-109.49-2.55 4.41c0 0 2.54 1.38 4 1.99 1.45 0.61 3.72 1.19 3.72 1.19l1.31-4.87" fill="#75507b"/><path d="m-81.55-113.76-3.6 3.6c0 0 2.1 1.99 3.34 2.96 1.25 0.96 3.28 2.11 3.28 2.11l2.53-4.37" fill="#5c3566"/><path d="m-85.82-119.33-4.41 2.55c0 0 1.51 2.47 2.47 3.72 0.95 1.25 2.63 2.89 2.63 2.89l3.57-3.57" fill="#e9b96e"/><path d="m-88.49-125.81-4.92 1.32c0 0 0.82 2.77 1.42 4.23 0.6 1.46 1.79 3.47 1.79 3.47l4.37-2.52" fill="#c17d11"/><path d="m-89.4-132.76-5.1 0c0 0 0.08 2.89 0.27 4.46 0.2 1.56 0.83 3.81 0.83 3.81l4.88-1.3" fill="#8f5902"/><path d="m-88.48-139.71-4.92-1.32c0 0-0.67 2.81-0.89 4.37-0.21 1.56-0.18 3.9-0.18 3.9l5.05 0" fill="#ef2929"/><path d="m-85.79-146.19-4.41-2.55c0 0-1.38 2.54-1.99 4-0.61 1.45-1.19 3.72-1.19 3.72l4.87 1.31" fill="#c00"/><path d="m-81.52-151.75-3.6-3.6c0 0-1.99 2.1-2.96 3.34-0.96 1.25-2.11 3.28-2.11 3.28l4.37 2.53" fill="#a40000"/><path d="m-75.95-156.01-2.55-4.41c0 0-2.47 1.51-3.72 2.47-1.25 0.95-2.89 2.63-2.89 2.63l3.57 3.57" fill="#eeeeec"/><path d="m-69.47-158.69-1.32-4.92c0 0-2.77 0.82-4.23 1.42-1.46 0.6-3.47 1.79-3.47 1.79l2.52 4.37" fill="#babdb6"/><path d="m-62.52-159.6 0-5.1c0 0-2.89 0.08-4.46 0.27-1.56 0.2-3.81 0.83-3.81 0.83l1.3 4.88" fill="#555753"/><path d="m-55.56-158.68 1.32-4.92c0 0-2.81-0.67-4.37-0.89-1.56-0.21-3.9-0.18-3.9-0.18l0 5.05" fill="#000"/></g>

</svg>
